<svg width="42" height="32" viewBox="0 0 42 32" fill="none" xmlns="http://www.w3.org/2000/svg">
<path d="M18.0654 0.544922C9.78543 2.84492 0.81543 8.36492 0.81543 17.9099C0.81543 26.1899 7.60043 31.1349 13.1204 31.1349H13.2354C15.9954 31.1349 19.2154 29.1799 19.2154 26.0749C19.2154 23.7749 18.1804 22.7399 17.6054 22.6249C13.1204 21.8199 9.78543 18.8299 9.78543 14.6899C9.78543 10.2049 13.3504 6.98492 19.4454 4.10992L18.0654 0.544922ZM40.2604 0.544922C31.9804 2.84492 23.0104 8.36492 23.0104 17.9099C23.0104 26.1899 29.9104 31.1349 35.3154 31.1349H35.4304C38.1904 31.1349 41.4104 29.1799 41.4104 26.0749C41.4104 23.7749 40.3754 22.7399 39.8004 22.6249C35.3154 21.8199 31.9804 18.8299 31.9804 14.6899C31.9804 10.2049 35.5454 6.98492 41.6404 4.10992L40.2604 0.544922Z" fill="#8A6F4F"/>
</svg>
